<?xml version="1.0" encoding="utf-8" standalone="no"?>
<!DOCTYPE svg PUBLIC "-//W3C//DTD SVG 1.1//EN"
  "http://www.w3.org/Graphics/SVG/1.1/DTD/svg11.dtd">
<svg xmlns:xlink="http://www.w3.org/1999/xlink" width="621.627422pt" height="441.041775pt" viewBox="0 0 621.627422 441.041775" xmlns="http://www.w3.org/2000/svg" version="1.1">
 <metadata>
  <rdf:RDF xmlns:dc="http://purl.org/dc/elements/1.1/" xmlns:cc="http://creativecommons.org/ns#" xmlns:rdf="http://www.w3.org/1999/02/22-rdf-syntax-ns#">
   <cc:Work>
    <dc:type rdf:resource="http://purl.org/dc/dcmitype/StillImage"/>
    <dc:format>image/svg+xml</dc:format>
    <dc:creator>
     <cc:Agent>
      <dc:title>Matplotlib v3.11.0, https://matplotlib.org/</dc:title>
     </cc:Agent>
    </dc:creator>
   </cc:Work>
  </rdf:RDF>
 </metadata>
 <defs>
  <style type="text/css">*{stroke-linejoin: round; stroke-linecap: butt}</style>
 </defs>
 <g id="figure_1">
  <g id="patch_1">
   <path d="M 0 441.041775
L 621.627422 441.041775
L 621.627422 0
L 0 0
z
" style="fill: #ffffff"/>
  </g>
  <g id="axes_1">
   <g id="patch_2">
    <path d="M 56.427422 328.757812
L 614.427422 328.757812
L 614.427422 23.837812
L 56.427422 23.837812
z
" style="fill: #ffffff"/>
   </g>
   <g id="matplotlib.axis_1">
    <g id="xtick_1">
     <g id="line2d_1">
      <path d="M 93.805861 328.757812
L 93.805861 23.837812
" clip-path="url(#p02186730e9)" style="fill: none; stroke: #cbd5e1; stroke-opacity: 0.65; stroke-width: 0.7; stroke-linecap: square"/>
     </g>
     <g id="line2d_2">
      <defs>
       <path id="mf24022f0e4" d="M 0 0
L 0 3.5
" style="stroke: #000000; stroke-width: 0.8"/>
      </defs>
      <g>
       <use xlink:href="#mf24022f0e4" x="93.805861" y="328.757812" style="stroke: #000000; stroke-width: 0.8"/>
      </g>
     </g>
     <g id="text_1">
      <!-- $4 -->
      <g transform="translate(87.443361 343.35625) scale(0.1 -0.1)">
       <defs>
        <path id="DejaVuSans-7" d="M 2163 -941
L 1850 -941
L 1847 0
Q 1519 6 1191 76
Q 863 147 531 288
L 531 850
Q 850 650 1176 548
Q 1503 447 1850 444
L 1850 1869
Q 1159 1981 845 2250
Q 531 2519 531 2988
Q 531 3497 872 3790
Q 1213 4084 1850 4128
L 1850 4863
L 2163 4863
L 2163 4138
Q 2453 4125 2725 4076
Q 2997 4028 3256 3944
L 3256 3397
Q 2997 3528 2723 3600
Q 2450 3672 2163 3684
L 2163 2350
Q 2872 2241 3206 1959
Q 3541 1678 3541 1191
Q 3541 663 3186 358
Q 2831 53 2163 6
L 2163 -941
z
M 1850 2406
L 1850 3688
Q 1488 3647 1297 3481
Q 1106 3316 1106 3041
Q 1106 2772 1282 2622
Q 1459 2472 1850 2406
z
M 2163 1806
L 2163 453
Q 2559 506 2761 678
Q 2963 850 2963 1131
Q 2963 1406 2770 1568
Q 2578 1731 2163 1806
z
" transform="scale(0.015625)"/>
        <path id="DejaVuSans-17" d="M 2419 4116
L 825 1625
L 2419 1625
L 2419 4116
z
M 2253 4666
L 3047 4666
L 3047 1625
L 3713 1625
L 3713 1100
L 3047 1100
L 3047 0
L 2419 0
L 2419 1100
L 313 1100
L 313 1709
L 2253 4666
z
" transform="scale(0.015625)"/>
       </defs>
       <use xlink:href="#DejaVuSans-7"/>
       <use xlink:href="#DejaVuSans-17" transform="translate(63.625 0)"/>
      </g>
     </g>
    </g>
    <g id="xtick_2">
     <g id="line2d_3">
      <path d="M 158.790321 328.757812
L 158.790321 23.837812
" clip-path="url(#p02186730e9)" style="fill: none; stroke: #cbd5e1; stroke-opacity: 0.65; stroke-width: 0.7; stroke-linecap: square"/>
     </g>
     <g id="line2d_4">
      <g>
       <use xlink:href="#mf24022f0e4" x="158.790321" y="328.757812" style="stroke: #000000; stroke-width: 0.8"/>
      </g>
     </g>
     <g id="text_2">
      <!-- $5 -->
      <g transform="translate(152.427821 343.35625) scale(0.1 -0.1)">
       <defs>
        <path id="DejaVuSans-18" d="M 691 4666
L 3169 4666
L 3169 4134
L 1269 4134
L 1269 2991
Q 1406 3038 1543 3061
Q 1681 3084 1819 3084
Q 2600 3084 3056 2656
Q 3513 2228 3513 1497
Q 3513 744 3044 326
Q 2575 -91 1722 -91
Q 1428 -91 1123 -41
Q 819 9 494 109
L 494 744
Q 775 591 1075 516
Q 1375 441 1709 441
Q 2250 441 2565 725
Q 2881 1009 2881 1497
Q 2881 1984 2565 2268
Q 2250 2553 1709 2553
Q 1456 2553 1204 2497
Q 953 2441 691 2322
L 691 4666
z
" transform="scale(0.015625)"/>
       </defs>
       <use xlink:href="#DejaVuSans-7"/>
       <use xlink:href="#DejaVuSans-18" transform="translate(63.625 0)"/>
      </g>
     </g>
    </g>
    <g id="xtick_3">
     <g id="line2d_5">
      <path d="M 360.650491 328.757812
L 360.650491 23.837812
" clip-path="url(#p02186730e9)" style="fill: none; stroke: #cbd5e1; stroke-opacity: 0.65; stroke-width: 0.7; stroke-linecap: square"/>
     </g>
     <g id="line2d_6">
      <g>
       <use xlink:href="#mf24022f0e4" x="360.650491" y="328.757812" style="stroke: #000000; stroke-width: 0.8"/>
      </g>
     </g>
     <g id="text_3">
      <!-- $10 -->
      <g transform="translate(351.106741 343.35625) scale(0.1 -0.1)">
       <defs>
        <path id="DejaVuSans-14" d="M 794 531
L 1825 531
L 1825 4091
L 703 3866
L 703 4441
L 1819 4666
L 2450 4666
L 2450 531
L 3481 531
L 3481 0
L 794 0
L 794 531
z
" transform="scale(0.015625)"/>
        <path id="DejaVuSans-13" d="M 2034 4250
Q 1547 4250 1301 3770
Q 1056 3291 1056 2328
Q 1056 1369 1301 889
Q 1547 409 2034 409
Q 2525 409 2770 889
Q 3016 1369 3016 2328
Q 3016 3291 2770 3770
Q 2525 4250 2034 4250
z
M 2034 4750
Q 2819 4750 3233 4129
Q 3647 3509 3647 2328
Q 3647 1150 3233 529
Q 2819 -91 2034 -91
Q 1250 -91 836 529
Q 422 1150 422 2328
Q 422 3509 836 4129
Q 1250 4750 2034 4750
z
" transform="scale(0.015625)"/>
       </defs>
       <use xlink:href="#DejaVuSans-7"/>
       <use xlink:href="#DejaVuSans-14" transform="translate(63.625 0)"/>
       <use xlink:href="#DejaVuSans-13" transform="translate(127.25 0)"/>
      </g>
     </g>
    </g>
    <g id="xtick_4">
     <g id="line2d_7">
      <path d="M 562.510662 328.757812
L 562.510662 23.837812
" clip-path="url(#p02186730e9)" style="fill: none; stroke: #cbd5e1; stroke-opacity: 0.65; stroke-width: 0.7; stroke-linecap: square"/>
     </g>
     <g id="line2d_8">
      <g>
       <use xlink:href="#mf24022f0e4" x="562.510662" y="328.757812" style="stroke: #000000; stroke-width: 0.8"/>
      </g>
     </g>
     <g id="text_4">
      <!-- $20 -->
      <g transform="translate(552.966912 343.35625) scale(0.1 -0.1)">
       <defs>
        <path id="DejaVuSans-15" d="M 1228 531
L 3431 531
L 3431 0
L 469 0
L 469 531
Q 828 903 1448 1529
Q 2069 2156 2228 2338
Q 2531 2678 2651 2914
Q 2772 3150 2772 3378
Q 2772 3750 2511 3984
Q 2250 4219 1831 4219
Q 1534 4219 1204 4116
Q 875 4013 500 3803
L 500 4441
Q 881 4594 1212 4672
Q 1544 4750 1819 4750
Q 2544 4750 2975 4387
Q 3406 4025 3406 3419
Q 3406 3131 3298 2873
Q 3191 2616 2906 2266
Q 2828 2175 2409 1742
Q 1991 1309 1228 531
z
" transform="scale(0.015625)"/>
       </defs>
       <use xlink:href="#DejaVuSans-7"/>
       <use xlink:href="#DejaVuSans-15" transform="translate(63.625 0)"/>
       <use xlink:href="#DejaVuSans-13" transform="translate(127.25 0)"/>
      </g>
     </g>
    </g>
    <g id="xtick_5"/>
    <g id="xtick_6"/>
    <g id="xtick_7"/>
    <g id="xtick_8"/>
    <g id="text_5">
     <!-- Average actual optimize-stage cost (USD, log scale) -->
     <g transform="translate(192.709297 363.116875) scale(0.11 -0.11)">
      <defs>
       <path id="DejaVuSans-24" d="M 2188 4044
L 1331 1722
L 3047 1722
L 2188 4044
z
M 1831 4666
L 2547 4666
L 4325 0
L 3669 0
L 3244 1197
L 1141 1197
L 716 0
L 50 0
L 1831 4666
z
" transform="scale(0.015625)"/>
       <path id="DejaVuSans-59" d="M 191 3500
L 800 3500
L 1894 563
L 2988 3500
L 3597 3500
L 2284 0
L 1503 0
L 191 3500
z
" transform="scale(0.015625)"/>
       <path id="DejaVuSans-48" d="M 3597 1894
L 3597 1613
L 953 1613
Q 991 1019 1311 708
Q 1631 397 2203 397
Q 2534 397 2845 478
Q 3156 559 3463 722
L 3463 178
Q 3153 47 2828 -22
Q 2503 -91 2169 -91
Q 1331 -91 842 396
Q 353 884 353 1716
Q 353 2575 817 3079
Q 1281 3584 2069 3584
Q 2775 3584 3186 3129
Q 3597 2675 3597 1894
z
M 3022 2063
Q 3016 2534 2758 2815
Q 2500 3097 2075 3097
Q 1594 3097 1305 2825
Q 1016 2553 972 2059
L 3022 2063
z
" transform="scale(0.015625)"/>
       <path id="DejaVuSans-55" d="M 2631 2963
Q 2534 3019 2420 3045
Q 2306 3072 2169 3072
Q 1681 3072 1420 2755
Q 1159 2438 1159 1844
L 1159 0
L 581 0
L 581 3500
L 1159 3500
L 1159 2956
Q 1341 3275 1631 3429
Q 1922 3584 2338 3584
Q 2397 3584 2469 3576
Q 2541 3569 2628 3553
L 2631 2963
z
" transform="scale(0.015625)"/>
       <path id="DejaVuSans-44" d="M 2194 1759
Q 1497 1759 1228 1600
Q 959 1441 959 1056
Q 959 750 1161 570
Q 1363 391 1709 391
Q 2188 391 2477 730
Q 2766 1069 2766 1631
L 2766 1759
L 2194 1759
z
M 3341 1997
L 3341 0
L 2766 0
L 2766 531
Q 2569 213 2275 61
Q 1981 -91 1556 -91
Q 1019 -91 701 211
Q 384 513 384 1019
Q 384 1609 779 1909
Q 1175 2209 1959 2209
L 2766 2209
L 2766 2266
Q 2766 2663 2505 2880
Q 2244 3097 1772 3097
Q 1472 3097 1187 3025
Q 903 2953 641 2809
L 641 3341
Q 956 3463 1253 3523
Q 1550 3584 1831 3584
Q 2591 3584 2966 3190
Q 3341 2797 3341 1997
z
" transform="scale(0.015625)"/>
       <path id="DejaVuSans-4a" d="M 2906 1791
Q 2906 2416 2648 2759
Q 2391 3103 1925 3103
Q 1463 3103 1205 2759
Q 947 2416 947 1791
Q 947 1169 1205 825
Q 1463 481 1925 481
Q 2391 481 2648 825
Q 2906 1169 2906 1791
z
M 3481 434
Q 3481 -459 3084 -895
Q 2688 -1331 1869 -1331
Q 1566 -1331 1297 -1286
Q 1028 -1241 775 -1147
L 775 -588
Q 1028 -725 1275 -790
Q 1522 -856 1778 -856
Q 2344 -856 2625 -561
Q 2906 -266 2906 331
L 2906 616
Q 2728 306 2450 153
Q 2172 0 1784 0
Q 1141 0 747 490
Q 353 981 353 1791
Q 353 2603 747 3093
Q 1141 3584 1784 3584
Q 2172 3584 2450 3431
Q 2728 3278 2906 2969
L 2906 3500
L 3481 3500
L 3481 434
z
" transform="scale(0.015625)"/>
       <path id="DejaVuSans-3" transform="scale(0.015625)"/>
       <path id="DejaVuSans-46" d="M 3122 3366
L 3122 2828
Q 2878 2963 2633 3030
Q 2388 3097 2138 3097
Q 1578 3097 1268 2742
Q 959 2388 959 1747
Q 959 1106 1268 751
Q 1578 397 2138 397
Q 2388 397 2633 464
Q 2878 531 3122 666
L 3122 134
Q 2881 22 2623 -34
Q 2366 -91 2075 -91
Q 1284 -91 818 406
Q 353 903 353 1747
Q 353 2603 823 3093
Q 1294 3584 2113 3584
Q 2378 3584 2631 3529
Q 2884 3475 3122 3366
z
" transform="scale(0.015625)"/>
       <path id="DejaVuSans-57" d="M 1172 4494
L 1172 3500
L 2356 3500
L 2356 3053
L 1172 3053
L 1172 1153
Q 1172 725 1289 603
Q 1406 481 1766 481
L 2356 481
L 2356 0
L 1766 0
Q 1100 0 847 248
Q 594 497 594 1153
L 594 3053
L 172 3053
L 172 3500
L 594 3500
L 594 4494
L 1172 4494
z
" transform="scale(0.015625)"/>
       <path id="DejaVuSans-58" d="M 544 1381
L 544 3500
L 1119 3500
L 1119 1403
Q 1119 906 1312 657
Q 1506 409 1894 409
Q 2359 409 2629 706
Q 2900 1003 2900 1516
L 2900 3500
L 3475 3500
L 3475 0
L 2900 0
L 2900 538
Q 2691 219 2414 64
Q 2138 -91 1772 -91
Q 1169 -91 856 284
Q 544 659 544 1381
z
M 1991 3584
L 1991 3584
z
" transform="scale(0.015625)"/>
       <path id="DejaVuSans-4f" d="M 603 4863
L 1178 4863
L 1178 0
L 603 0
L 603 4863
z
" transform="scale(0.015625)"/>
       <path id="DejaVuSans-52" d="M 1959 3097
Q 1497 3097 1228 2736
Q 959 2375 959 1747
Q 959 1119 1226 758
Q 1494 397 1959 397
Q 2419 397 2687 759
Q 2956 1122 2956 1747
Q 2956 2369 2687 2733
Q 2419 3097 1959 3097
z
M 1959 3584
Q 2709 3584 3137 3096
Q 3566 2609 3566 1747
Q 3566 888 3137 398
Q 2709 -91 1959 -91
Q 1206 -91 779 398
Q 353 888 353 1747
Q 353 2609 779 3096
Q 1206 3584 1959 3584
z
" transform="scale(0.015625)"/>
       <path id="DejaVuSans-53" d="M 1159 525
L 1159 -1331
L 581 -1331
L 581 3500
L 1159 3500
L 1159 2969
Q 1341 3281 1617 3432
Q 1894 3584 2278 3584
Q 2916 3584 3314 3078
Q 3713 2572 3713 1747
Q 3713 922 3314 415
Q 2916 -91 2278 -91
Q 1894 -91 1617 61
Q 1341 213 1159 525
z
M 3116 1747
Q 3116 2381 2855 2742
Q 2594 3103 2138 3103
Q 1681 3103 1420 2742
Q 1159 2381 1159 1747
Q 1159 1113 1420 752
Q 1681 391 2138 391
Q 2594 391 2855 752
Q 3116 1113 3116 1747
z
" transform="scale(0.015625)"/>
       <path id="DejaVuSans-4c" d="M 603 3500
L 1178 3500
L 1178 0
L 603 0
L 603 3500
z
M 603 4863
L 1178 4863
L 1178 4134
L 603 4134
L 603 4863
z
" transform="scale(0.015625)"/>
       <path id="DejaVuSans-50" d="M 3328 2828
Q 3544 3216 3844 3400
Q 4144 3584 4550 3584
Q 5097 3584 5394 3201
Q 5691 2819 5691 2113
L 5691 0
L 5113 0
L 5113 2094
Q 5113 2597 4934 2840
Q 4756 3084 4391 3084
Q 3944 3084 3684 2787
Q 3425 2491 3425 1978
L 3425 0
L 2847 0
L 2847 2094
Q 2847 2600 2669 2842
Q 2491 3084 2119 3084
Q 1678 3084 1418 2786
Q 1159 2488 1159 1978
L 1159 0
L 581 0
L 581 3500
L 1159 3500
L 1159 2956
Q 1356 3278 1631 3431
Q 1906 3584 2284 3584
Q 2666 3584 2933 3390
Q 3200 3197 3328 2828
z
" transform="scale(0.015625)"/>
       <path id="DejaVuSans-5d" d="M 353 3500
L 3084 3500
L 3084 2975
L 922 459
L 3084 459
L 3084 0
L 275 0
L 275 525
L 2438 3041
L 353 3041
L 353 3500
z
" transform="scale(0.015625)"/>
       <path id="DejaVuSans-10" d="M 313 2009
L 1997 2009
L 1997 1497
L 313 1497
L 313 2009
z
" transform="scale(0.015625)"/>
       <path id="DejaVuSans-56" d="M 2834 3397
L 2834 2853
Q 2591 2978 2328 3040
Q 2066 3103 1784 3103
Q 1356 3103 1142 2972
Q 928 2841 928 2578
Q 928 2378 1081 2264
Q 1234 2150 1697 2047
L 1894 2003
Q 2506 1872 2764 1633
Q 3022 1394 3022 966
Q 3022 478 2636 193
Q 2250 -91 1575 -91
Q 1294 -91 989 -36
Q 684 19 347 128
L 347 722
Q 666 556 975 473
Q 1284 391 1588 391
Q 1994 391 2212 530
Q 2431 669 2431 922
Q 2431 1156 2273 1281
Q 2116 1406 1581 1522
L 1381 1569
Q 847 1681 609 1914
Q 372 2147 372 2553
Q 372 3047 722 3315
Q 1072 3584 1716 3584
Q 2034 3584 2315 3537
Q 2597 3491 2834 3397
z
" transform="scale(0.015625)"/>
       <path id="DejaVuSans-b" d="M 1984 4856
Q 1566 4138 1362 3434
Q 1159 2731 1159 2009
Q 1159 1288 1364 580
Q 1569 -128 1984 -844
L 1484 -844
Q 1016 -109 783 600
Q 550 1309 550 2009
Q 550 2706 781 3412
Q 1013 4119 1484 4856
L 1984 4856
z
" transform="scale(0.015625)"/>
       <path id="DejaVuSans-38" d="M 556 4666
L 1191 4666
L 1191 1831
Q 1191 1081 1462 751
Q 1734 422 2344 422
Q 2950 422 3222 751
Q 3494 1081 3494 1831
L 3494 4666
L 4128 4666
L 4128 1753
Q 4128 841 3676 375
Q 3225 -91 2344 -91
Q 1459 -91 1007 375
Q 556 841 556 1753
L 556 4666
z
" transform="scale(0.015625)"/>
       <path id="DejaVuSans-36" d="M 3425 4513
L 3425 3897
Q 3066 4069 2747 4153
Q 2428 4238 2131 4238
Q 1616 4238 1336 4038
Q 1056 3838 1056 3469
Q 1056 3159 1242 3001
Q 1428 2844 1947 2747
L 2328 2669
Q 3034 2534 3370 2195
Q 3706 1856 3706 1288
Q 3706 609 3251 259
Q 2797 -91 1919 -91
Q 1588 -91 1214 -16
Q 841 59 441 206
L 441 856
Q 825 641 1194 531
Q 1563 422 1919 422
Q 2459 422 2753 634
Q 3047 847 3047 1241
Q 3047 1584 2836 1778
Q 2625 1972 2144 2069
L 1759 2144
Q 1053 2284 737 2584
Q 422 2884 422 3419
Q 422 4038 858 4394
Q 1294 4750 2059 4750
Q 2388 4750 2728 4690
Q 3069 4631 3425 4513
z
" transform="scale(0.015625)"/>
       <path id="DejaVuSans-27" d="M 1259 4147
L 1259 519
L 2022 519
Q 2988 519 3436 956
Q 3884 1394 3884 2338
Q 3884 3275 3436 3711
Q 2988 4147 2022 4147
L 1259 4147
z
M 628 4666
L 1925 4666
Q 3281 4666 3915 4102
Q 4550 3538 4550 2338
Q 4550 1131 3912 565
Q 3275 0 1925 0
L 628 0
L 628 4666
z
" transform="scale(0.015625)"/>
       <path id="DejaVuSans-f" d="M 750 794
L 1409 794
L 1409 256
L 897 -744
L 494 -744
L 750 256
L 750 794
z
" transform="scale(0.015625)"/>
       <path id="DejaVuSans-c" d="M 513 4856
L 1013 4856
Q 1481 4119 1714 3412
Q 1947 2706 1947 2009
Q 1947 1309 1714 600
Q 1481 -109 1013 -844
L 513 -844
Q 928 -128 1133 580
Q 1338 1288 1338 2009
Q 1338 2731 1133 3434
Q 928 4138 513 4856
z
" transform="scale(0.015625)"/>
      </defs>
      <use xlink:href="#DejaVuSans-24"/>
      <use xlink:href="#DejaVuSans-59" transform="translate(62.546875 0)"/>
      <use xlink:href="#DejaVuSans-48" transform="translate(121.734375 0)"/>
      <use xlink:href="#DejaVuSans-55" transform="translate(183.265625 0)"/>
      <use xlink:href="#DejaVuSans-44" transform="translate(224.375 0)"/>
      <use xlink:href="#DejaVuSans-4a" transform="translate(285.65625 0)"/>
      <use xlink:href="#DejaVuSans-48" transform="translate(349.140625 0)"/>
      <use xlink:href="#DejaVuSans-3" transform="translate(410.671875 0)"/>
      <use xlink:href="#DejaVuSans-44" transform="translate(442.453125 0)"/>
      <use xlink:href="#DejaVuSans-46" transform="translate(503.734375 0)"/>
      <use xlink:href="#DejaVuSans-57" transform="translate(558.71875 0)"/>
      <use xlink:href="#DejaVuSans-58" transform="translate(597.921875 0)"/>
      <use xlink:href="#DejaVuSans-44" transform="translate(661.296875 0)"/>
      <use xlink:href="#DejaVuSans-4f" transform="translate(722.578125 0)"/>
      <use xlink:href="#DejaVuSans-3" transform="translate(750.359375 0)"/>
      <use xlink:href="#DejaVuSans-52" transform="translate(782.140625 0)"/>
      <use xlink:href="#DejaVuSans-53" transform="translate(843.328125 0)"/>
      <use xlink:href="#DejaVuSans-57" transform="translate(906.8125 0)"/>
      <use xlink:href="#DejaVuSans-4c" transform="translate(946.015625 0)"/>
      <use xlink:href="#DejaVuSans-50" transform="translate(973.796875 0)"/>
      <use xlink:href="#DejaVuSans-4c" transform="translate(1071.203125 0)"/>
      <use xlink:href="#DejaVuSans-5d" transform="translate(1098.984375 0)"/>
      <use xlink:href="#DejaVuSans-48" transform="translate(1151.46875 0)"/>
      <use xlink:href="#DejaVuSans-10" transform="translate(1213 0)"/>
      <use xlink:href="#DejaVuSans-56" transform="translate(1249.078125 0)"/>
      <use xlink:href="#DejaVuSans-57" transform="translate(1301.171875 0)"/>
      <use xlink:href="#DejaVuSans-44" transform="translate(1340.375 0)"/>
      <use xlink:href="#DejaVuSans-4a" transform="translate(1401.65625 0)"/>
      <use xlink:href="#DejaVuSans-48" transform="translate(1465.140625 0)"/>
      <use xlink:href="#DejaVuSans-3" transform="translate(1526.671875 0)"/>
      <use xlink:href="#DejaVuSans-46" transform="translate(1558.453125 0)"/>
      <use xlink:href="#DejaVuSans-52" transform="translate(1613.4375 0)"/>
      <use xlink:href="#DejaVuSans-56" transform="translate(1674.625 0)"/>
      <use xlink:href="#DejaVuSans-57" transform="translate(1726.71875 0)"/>
      <use xlink:href="#DejaVuSans-3" transform="translate(1765.921875 0)"/>
      <use xlink:href="#DejaVuSans-b" transform="translate(1797.703125 0)"/>
      <use xlink:href="#DejaVuSans-38" transform="translate(1836.71875 0)"/>
      <use xlink:href="#DejaVuSans-36" transform="translate(1909.90625 0)"/>
      <use xlink:href="#DejaVuSans-27" transform="translate(1973.390625 0)"/>
      <use xlink:href="#DejaVuSans-f" transform="translate(2050.390625 0)"/>
      <use xlink:href="#DejaVuSans-3" transform="translate(2082.171875 0)"/>
      <use xlink:href="#DejaVuSans-4f" transform="translate(2113.953125 0)"/>
      <use xlink:href="#DejaVuSans-52" transform="translate(2141.734375 0)"/>
      <use xlink:href="#DejaVuSans-4a" transform="translate(2202.921875 0)"/>
      <use xlink:href="#DejaVuSans-3" transform="translate(2266.40625 0)"/>
      <use xlink:href="#DejaVuSans-56" transform="translate(2298.1875 0)"/>
      <use xlink:href="#DejaVuSans-46" transform="translate(2350.28125 0)"/>
      <use xlink:href="#DejaVuSans-44" transform="translate(2405.265625 0)"/>
      <use xlink:href="#DejaVuSans-4f" transform="translate(2466.546875 0)"/>
      <use xlink:href="#DejaVuSans-48" transform="translate(2494.328125 0)"/>
      <use xlink:href="#DejaVuSans-c" transform="translate(2555.859375 0)"/>
     </g>
    </g>
   </g>
   <g id="matplotlib.axis_2">
    <g id="ytick_1">
     <g id="line2d_9">
      <path d="M 56.427422 328.757812
L 614.427422 328.757812
" clip-path="url(#p02186730e9)" style="fill: none; stroke: #cbd5e1; stroke-opacity: 0.65; stroke-width: 0.7; stroke-linecap: square"/>
     </g>
     <g id="line2d_10">
      <defs>
       <path id="mf2af68e196" d="M 0 0
L -3.5 0
" style="stroke: #000000; stroke-width: 0.8"/>
      </defs>
      <g>
       <use xlink:href="#mf2af68e196" x="56.427422" y="328.757812" style="stroke: #000000; stroke-width: 0.8"/>
      </g>
     </g>
     <g id="text_6">
      <!-- 45% -->
      <g transform="translate(27.200859 332.556641) scale(0.1 -0.1)">
       <defs>
        <path id="DejaVuSans-8" d="M 4653 2053
Q 4381 2053 4226 1822
Q 4072 1591 4072 1178
Q 4072 772 4226 539
Q 4381 306 4653 306
Q 4919 306 5073 539
Q 5228 772 5228 1178
Q 5228 1588 5073 1820
Q 4919 2053 4653 2053
z
M 4653 2450
Q 5147 2450 5437 2106
Q 5728 1763 5728 1178
Q 5728 594 5436 251
Q 5144 -91 4653 -91
Q 4153 -91 3862 251
Q 3572 594 3572 1178
Q 3572 1766 3864 2108
Q 4156 2450 4653 2450
z
M 1428 4353
Q 1159 4353 1004 4120
Q 850 3888 850 3481
Q 850 3069 1003 2837
Q 1156 2606 1428 2606
Q 1700 2606 1854 2837
Q 2009 3069 2009 3481
Q 2009 3884 1853 4118
Q 1697 4353 1428 4353
z
M 4250 4750
L 4750 4750
L 1831 -91
L 1331 -91
L 4250 4750
z
M 1428 4750
Q 1922 4750 2215 4408
Q 2509 4066 2509 3481
Q 2509 2891 2217 2550
Q 1925 2209 1428 2209
Q 931 2209 642 2551
Q 353 2894 353 3481
Q 353 4063 643 4406
Q 934 4750 1428 4750
z
" transform="scale(0.015625)"/>
       </defs>
       <use xlink:href="#DejaVuSans-17"/>
       <use xlink:href="#DejaVuSans-18" transform="translate(63.625 0)"/>
       <use xlink:href="#DejaVuSans-8" transform="translate(127.25 0)"/>
      </g>
     </g>
    </g>
    <g id="ytick_2">
     <g id="line2d_11">
      <path d="M 56.427422 252.527812
L 614.427422 252.527812
" clip-path="url(#p02186730e9)" style="fill: none; stroke: #cbd5e1; stroke-opacity: 0.65; stroke-width: 0.7; stroke-linecap: square"/>
     </g>
     <g id="line2d_12">
      <g>
       <use xlink:href="#mf2af68e196" x="56.427422" y="252.527812" style="stroke: #000000; stroke-width: 0.8"/>
      </g>
     </g>
     <g id="text_7">
      <!-- 50% -->
      <g transform="translate(27.200859 256.326641) scale(0.1 -0.1)">
       <use xlink:href="#DejaVuSans-18"/>
       <use xlink:href="#DejaVuSans-13" transform="translate(63.625 0)"/>
       <use xlink:href="#DejaVuSans-8" transform="translate(127.25 0)"/>
      </g>
     </g>
    </g>
    <g id="ytick_3">
     <g id="line2d_13">
      <path d="M 56.427422 176.297812
L 614.427422 176.297812
" clip-path="url(#p02186730e9)" style="fill: none; stroke: #cbd5e1; stroke-opacity: 0.65; stroke-width: 0.7; stroke-linecap: square"/>
     </g>
     <g id="line2d_14">
      <g>
       <use xlink:href="#mf2af68e196" x="56.427422" y="176.297812" style="stroke: #000000; stroke-width: 0.8"/>
      </g>
     </g>
     <g id="text_8">
      <!-- 55% -->
      <g transform="translate(27.200859 180.096641) scale(0.1 -0.1)">
       <use xlink:href="#DejaVuSans-18"/>
       <use xlink:href="#DejaVuSans-18" transform="translate(63.625 0)"/>
       <use xlink:href="#DejaVuSans-8" transform="translate(127.25 0)"/>
      </g>
     </g>
    </g>
    <g id="ytick_4">
     <g id="line2d_15">
      <path d="M 56.427422 100.067812
L 614.427422 100.067812
" clip-path="url(#p02186730e9)" style="fill: none; stroke: #cbd5e1; stroke-opacity: 0.65; stroke-width: 0.7; stroke-linecap: square"/>
     </g>
     <g id="line2d_16">
      <g>
       <use xlink:href="#mf2af68e196" x="56.427422" y="100.067812" style="stroke: #000000; stroke-width: 0.8"/>
      </g>
     </g>
     <g id="text_9">
      <!-- 60% -->
      <g transform="translate(27.200859 103.866641) scale(0.1 -0.1)">
       <defs>
        <path id="DejaVuSans-19" d="M 2113 2584
Q 1688 2584 1439 2293
Q 1191 2003 1191 1497
Q 1191 994 1439 701
Q 1688 409 2113 409
Q 2538 409 2786 701
Q 3034 994 3034 1497
Q 3034 2003 2786 2293
Q 2538 2584 2113 2584
z
M 3366 4563
L 3366 3988
Q 3128 4100 2886 4159
Q 2644 4219 2406 4219
Q 1781 4219 1451 3797
Q 1122 3375 1075 2522
Q 1259 2794 1537 2939
Q 1816 3084 2150 3084
Q 2853 3084 3261 2657
Q 3669 2231 3669 1497
Q 3669 778 3244 343
Q 2819 -91 2113 -91
Q 1303 -91 875 529
Q 447 1150 447 2328
Q 447 3434 972 4092
Q 1497 4750 2381 4750
Q 2619 4750 2861 4703
Q 3103 4656 3366 4563
z
" transform="scale(0.015625)"/>
       </defs>
       <use xlink:href="#DejaVuSans-19"/>
       <use xlink:href="#DejaVuSans-13" transform="translate(63.625 0)"/>
       <use xlink:href="#DejaVuSans-8" transform="translate(127.25 0)"/>
      </g>
     </g>
    </g>
    <g id="ytick_5">
     <g id="line2d_17">
      <path d="M 56.427422 23.837812
L 614.427422 23.837812
" clip-path="url(#p02186730e9)" style="fill: none; stroke: #cbd5e1; stroke-opacity: 0.65; stroke-width: 0.7; stroke-linecap: square"/>
     </g>
     <g id="line2d_18">
      <g>
       <use xlink:href="#mf2af68e196" x="56.427422" y="23.837812" style="stroke: #000000; stroke-width: 0.8"/>
      </g>
     </g>
     <g id="text_10">
      <!-- 65% -->
      <g transform="translate(27.200859 27.636641) scale(0.1 -0.1)">
       <use xlink:href="#DejaVuSans-19"/>
       <use xlink:href="#DejaVuSans-18" transform="translate(63.625 0)"/>
       <use xlink:href="#DejaVuSans-8" transform="translate(127.25 0)"/>
      </g>
     </g>
    </g>
    <g id="text_11">
     <!-- Held-out finale accuracy -->
     <g transform="translate(15.558281 243.475156) rotate(-90) scale(0.11 -0.11)">
      <defs>
       <path id="DejaVuSans-2b" d="M 628 4666
L 1259 4666
L 1259 2753
L 3553 2753
L 3553 4666
L 4184 4666
L 4184 0
L 3553 0
L 3553 2222
L 1259 2222
L 1259 0
L 628 0
L 628 4666
z
" transform="scale(0.015625)"/>
       <path id="DejaVuSans-47" d="M 2906 2969
L 2906 4863
L 3481 4863
L 3481 0
L 2906 0
L 2906 525
Q 2725 213 2448 61
Q 2172 -91 1784 -91
Q 1150 -91 751 415
Q 353 922 353 1747
Q 353 2572 751 3078
Q 1150 3584 1784 3584
Q 2172 3584 2448 3432
Q 2725 3281 2906 2969
z
M 947 1747
Q 947 1113 1208 752
Q 1469 391 1925 391
Q 2381 391 2643 752
Q 2906 1113 2906 1747
Q 2906 2381 2643 2742
Q 2381 3103 1925 3103
Q 1469 3103 1208 2742
Q 947 2381 947 1747
z
" transform="scale(0.015625)"/>
       <path id="DejaVuSans-13af" d="M 3431 3500
L 3431 0
L 2853 0
L 2853 3053
L 1275 3053
L 1275 0
L 697 0
L 697 3053
L 147 3053
L 147 3500
L 697 3500
L 697 3744
Q 697 4316 967 4589
Q 1238 4863 1797 4863
L 2375 4863
L 2375 4384
L 1825 4384
Q 1516 4384 1395 4259
Q 1275 4134 1275 3809
L 1275 3500
L 3431 3500
z
M 2853 4856
L 3431 4856
L 3431 4128
L 2853 4128
L 2853 4856
z
" transform="scale(0.015625)"/>
       <path id="DejaVuSans-51" d="M 3513 2113
L 3513 0
L 2938 0
L 2938 2094
Q 2938 2591 2744 2837
Q 2550 3084 2163 3084
Q 1697 3084 1428 2787
Q 1159 2491 1159 1978
L 1159 0
L 581 0
L 581 3500
L 1159 3500
L 1159 2956
Q 1366 3272 1645 3428
Q 1925 3584 2291 3584
Q 2894 3584 3203 3211
Q 3513 2838 3513 2113
z
" transform="scale(0.015625)"/>
       <path id="DejaVuSans-5c" d="M 2059 -325
Q 1816 -950 1584 -1140
Q 1353 -1331 966 -1331
L 506 -1331
L 506 -850
L 844 -850
Q 1081 -850 1212 -737
Q 1344 -625 1503 -206
L 1606 56
L 191 3500
L 800 3500
L 1894 763
L 2988 3500
L 3597 3500
L 2059 -325
z
" transform="scale(0.015625)"/>
      </defs>
      <use xlink:href="#DejaVuSans-2b"/>
      <use xlink:href="#DejaVuSans-48" transform="translate(75.203125 0)"/>
      <use xlink:href="#DejaVuSans-4f" transform="translate(136.734375 0)"/>
      <use xlink:href="#DejaVuSans-47" transform="translate(164.515625 0)"/>
      <use xlink:href="#DejaVuSans-10" transform="translate(228 0)"/>
      <use xlink:href="#DejaVuSans-52" transform="translate(265.9375 0)"/>
      <use xlink:href="#DejaVuSans-58" transform="translate(327.125 0)"/>
      <use xlink:href="#DejaVuSans-57" transform="translate(390.5 0)"/>
      <use xlink:href="#DejaVuSans-3" transform="translate(429.703125 0)"/>
      <use xlink:href="#DejaVuSans-13af" transform="translate(461.484375 0)"/>
      <use xlink:href="#DejaVuSans-51" transform="translate(524.46875 0)"/>
      <use xlink:href="#DejaVuSans-44" transform="translate(587.84375 0)"/>
      <use xlink:href="#DejaVuSans-4f" transform="translate(649.125 0)"/>
      <use xlink:href="#DejaVuSans-48" transform="translate(676.90625 0)"/>
      <use xlink:href="#DejaVuSans-3" transform="translate(738.4375 0)"/>
      <use xlink:href="#DejaVuSans-44" transform="translate(770.21875 0)"/>
      <use xlink:href="#DejaVuSans-46" transform="translate(831.5 0)"/>
      <use xlink:href="#DejaVuSans-46" transform="translate(886.484375 0)"/>
      <use xlink:href="#DejaVuSans-58" transform="translate(941.46875 0)"/>
      <use xlink:href="#DejaVuSans-55" transform="translate(1004.84375 0)"/>
      <use xlink:href="#DejaVuSans-44" transform="translate(1045.953125 0)"/>
      <use xlink:href="#DejaVuSans-46" transform="translate(1107.234375 0)"/>
      <use xlink:href="#DejaVuSans-5c" transform="translate(1162.21875 0)"/>
     </g>
    </g>
   </g>
   <g id="line2d_19">
    <path d="M 162.839162 149.159932
L 368.692654 60.428212
L 586.670937 95.951392
" clip-path="url(#p02186730e9)" style="fill: none; stroke: #e76f00; stroke-width: 2.1; stroke-linecap: square"/>
    <defs>
     <path id="mf1166933a8" d="M 0 3
C 0.795609 3 1.55874 2.683901 2.12132 2.12132
C 2.683901 1.55874 3 0.795609 3 0
C 3 -0.795609 2.683901 -1.55874 2.12132 -2.12132
C 1.55874 -2.683901 0.795609 -3 0 -3
C -0.795609 -3 -1.55874 -2.683901 -2.12132 -2.12132
C -2.683901 -1.55874 -3 -0.795609 -3 0
C -3 0.795609 -2.683901 1.55874 -2.12132 2.12132
C -1.55874 2.683901 -0.795609 3 0 3
z
" style="stroke: #e76f00; stroke-width: 1.6"/>
    </defs>
    <g clip-path="url(#p02186730e9)">
     <use xlink:href="#mf1166933a8" x="162.839162" y="149.159932" style="fill: #e76f00; stroke: #e76f00; stroke-width: 1.6"/>
     <use xlink:href="#mf1166933a8" x="368.692654" y="60.428212" style="fill: #e76f00; stroke: #e76f00; stroke-width: 1.6"/>
     <use xlink:href="#mf1166933a8" x="586.670937" y="95.951392" style="fill: #e76f00; stroke: #e76f00; stroke-width: 1.6"/>
    </g>
   </g>
   <g id="line2d_20">
    <path d="M 166.832484 104.794072
L 325.401387 110.740013
L 574.352353 143.213993
" clip-path="url(#p02186730e9)" style="fill: none; stroke-dasharray: 7.77,3.36; stroke-dashoffset: 0; stroke: #e76f00; stroke-width: 2.1"/>
    <defs>
     <path id="m5cf7f65588" d="M 0 3
C 0.795609 3 1.55874 2.683901 2.12132 2.12132
C 2.683901 1.55874 3 0.795609 3 0
C 3 -0.795609 2.683901 -1.55874 2.12132 -2.12132
C 1.55874 -2.683901 0.795609 -3 0 -3
C -0.795609 -3 -1.55874 -2.683901 -2.12132 -2.12132
C -2.683901 -1.55874 -3 -0.795609 -3 0
C -3 0.795609 -2.683901 1.55874 -2.12132 2.12132
C -1.55874 2.683901 -0.795609 3 0 3
z
" style="stroke: #e76f00; stroke-width: 1.6"/>
    </defs>
    <g clip-path="url(#p02186730e9)">
     <use xlink:href="#m5cf7f65588" x="166.832484" y="104.794072" style="fill: #ffffff; stroke: #e76f00; stroke-width: 1.6"/>
     <use xlink:href="#m5cf7f65588" x="325.401387" y="110.740013" style="fill: #ffffff; stroke: #e76f00; stroke-width: 1.6"/>
     <use xlink:href="#m5cf7f65588" x="574.352353" y="143.213993" style="fill: #ffffff; stroke: #e76f00; stroke-width: 1.6"/>
    </g>
   </g>
   <g id="line2d_21">
    <path d="M 115.543753 255.424553
L 197.968767 190.476593
L 383.602094 240.635932
" clip-path="url(#p02186730e9)" style="fill: none; stroke: #059669; stroke-width: 2.1; stroke-linecap: square"/>
    <defs>
     <path id="mbead683cdf" d="M 0 3
C 0.795609 3 1.55874 2.683901 2.12132 2.12132
C 2.683901 1.55874 3 0.795609 3 0
C 3 -0.795609 2.683901 -1.55874 2.12132 -2.12132
C 1.55874 -2.683901 0.795609 -3 0 -3
C -0.795609 -3 -1.55874 -2.683901 -2.12132 -2.12132
C -2.683901 -1.55874 -3 -0.795609 -3 0
C -3 0.795609 -2.683901 1.55874 -2.12132 2.12132
C -1.55874 2.683901 -0.795609 3 0 3
z
" style="stroke: #059669; stroke-width: 1.6"/>
    </defs>
    <g clip-path="url(#p02186730e9)">
     <use xlink:href="#mbead683cdf" x="115.543753" y="255.424553" style="fill: #059669; stroke: #059669; stroke-width: 1.6"/>
     <use xlink:href="#mbead683cdf" x="197.968767" y="190.476593" style="fill: #059669; stroke: #059669; stroke-width: 1.6"/>
     <use xlink:href="#mbead683cdf" x="383.602094" y="240.635932" style="fill: #059669; stroke: #059669; stroke-width: 1.6"/>
    </g>
   </g>
   <g id="line2d_22">
    <path d="M 112.14555 258.473753
L 84.183907 252.527812
L 157.623094 220.053832
" clip-path="url(#p02186730e9)" style="fill: none; stroke-dasharray: 7.77,3.36; stroke-dashoffset: 0; stroke: #059669; stroke-width: 2.1"/>
    <defs>
     <path id="mc6af1fe56c" d="M 0 3
C 0.795609 3 1.55874 2.683901 2.12132 2.12132
C 2.683901 1.55874 3 0.795609 3 0
C 3 -0.795609 2.683901 -1.55874 2.12132 -2.12132
C 1.55874 -2.683901 0.795609 -3 0 -3
C -0.795609 -3 -1.55874 -2.683901 -2.12132 -2.12132
C -2.683901 -1.55874 -3 -0.795609 -3 0
C -3 0.795609 -2.683901 1.55874 -2.12132 2.12132
C -1.55874 2.683901 -0.795609 3 0 3
z
" style="stroke: #059669; stroke-width: 1.6"/>
    </defs>
    <g clip-path="url(#p02186730e9)">
     <use xlink:href="#mc6af1fe56c" x="112.14555" y="258.473753" style="fill: #ffffff; stroke: #059669; stroke-width: 1.6"/>
     <use xlink:href="#mc6af1fe56c" x="84.183907" y="252.527812" style="fill: #ffffff; stroke: #059669; stroke-width: 1.6"/>
     <use xlink:href="#mc6af1fe56c" x="157.623094" y="220.053832" style="fill: #ffffff; stroke: #059669; stroke-width: 1.6"/>
    </g>
   </g>
   <g id="line2d_23">
    <path d="M 100.99691 228.896513
L 279.191463 196.422532
L 481.628883 234.842452
" clip-path="url(#p02186730e9)" style="fill: none; stroke: #2563eb; stroke-width: 2.1; stroke-linecap: square"/>
    <defs>
     <path id="md5c0569993" d="M 0 3
C 0.795609 3 1.55874 2.683901 2.12132 2.12132
C 2.683901 1.55874 3 0.795609 3 0
C 3 -0.795609 2.683901 -1.55874 2.12132 -2.12132
C 1.55874 -2.683901 0.795609 -3 0 -3
C -0.795609 -3 -1.55874 -2.683901 -2.12132 -2.12132
C -2.683901 -1.55874 -3 -0.795609 -3 0
C -3 0.795609 -2.683901 1.55874 -2.12132 2.12132
C -1.55874 2.683901 -0.795609 3 0 3
z
" style="stroke: #2563eb; stroke-width: 1.6"/>
    </defs>
    <g clip-path="url(#p02186730e9)">
     <use xlink:href="#md5c0569993" x="100.99691" y="228.896513" style="fill: #2563eb; stroke: #2563eb; stroke-width: 1.6"/>
     <use xlink:href="#md5c0569993" x="279.191463" y="196.422532" style="fill: #2563eb; stroke: #2563eb; stroke-width: 1.6"/>
     <use xlink:href="#md5c0569993" x="481.628883" y="234.842452" style="fill: #2563eb; stroke: #2563eb; stroke-width: 1.6"/>
    </g>
   </g>
   <g id="line2d_24">
    <path d="M 85.685058 181.633912
L 157.037722 234.842452
L 131.964261 205.265212
" clip-path="url(#p02186730e9)" style="fill: none; stroke-dasharray: 7.77,3.36; stroke-dashoffset: 0; stroke: #2563eb; stroke-width: 2.1"/>
    <defs>
     <path id="m011878ea87" d="M 0 3
C 0.795609 3 1.55874 2.683901 2.12132 2.12132
C 2.683901 1.55874 3 0.795609 3 0
C 3 -0.795609 2.683901 -1.55874 2.12132 -2.12132
C 1.55874 -2.683901 0.795609 -3 0 -3
C -0.795609 -3 -1.55874 -2.683901 -2.12132 -2.12132
C -2.683901 -1.55874 -3 -0.795609 -3 0
C -3 0.795609 -2.683901 1.55874 -2.12132 2.12132
C -1.55874 2.683901 -0.795609 3 0 3
z
" style="stroke: #2563eb; stroke-width: 1.6"/>
    </defs>
    <g clip-path="url(#p02186730e9)">
     <use xlink:href="#m011878ea87" x="85.685058" y="181.633912" style="fill: #ffffff; stroke: #2563eb; stroke-width: 1.6"/>
     <use xlink:href="#m011878ea87" x="157.037722" y="234.842452" style="fill: #ffffff; stroke: #2563eb; stroke-width: 1.6"/>
     <use xlink:href="#m011878ea87" x="131.964261" y="205.265212" style="fill: #ffffff; stroke: #2563eb; stroke-width: 1.6"/>
    </g>
   </g>
   <g id="patch_3">
    <path d="M 56.427422 328.757812
L 56.427422 23.837812
" style="fill: none; stroke: #94a3b8; stroke-width: 0.8; stroke-linejoin: miter; stroke-linecap: square"/>
   </g>
   <g id="patch_4">
    <path d="M 56.427422 328.757812
L 614.427422 328.757812
" style="fill: none; stroke: #94a3b8; stroke-width: 0.8; stroke-linejoin: miter; stroke-linecap: square"/>
   </g>
   <g id="text_12">
    <!-- OfficeQA: held-out finale accuracy versus optimize-stage cost -->
    <g transform="translate(92.200391 17.837812) scale(0.14 -0.14)">
     <defs>
      <path id="DejaVuSans-Bold-32" d="M 2719 3878
Q 2169 3878 1866 3472
Q 1563 3066 1563 2328
Q 1563 1594 1866 1187
Q 2169 781 2719 781
Q 3272 781 3575 1187
Q 3878 1594 3878 2328
Q 3878 3066 3575 3472
Q 3272 3878 2719 3878
z
M 2719 4750
Q 3844 4750 4481 4106
Q 5119 3463 5119 2328
Q 5119 1197 4481 553
Q 3844 -91 2719 -91
Q 1597 -91 958 553
Q 319 1197 319 2328
Q 319 3463 958 4106
Q 1597 4750 2719 4750
z
" transform="scale(0.015625)"/>
      <path id="DejaVuSans-Bold-13ad" d="M 2841 4863
L 2841 4128
L 2222 4128
Q 1984 4128 1891 4044
Q 1797 3956 1797 3744
L 1797 3500
L 3078 3500
L 3078 3744
Q 3078 4316 3397 4588
Q 3716 4863 4384 4863
L 5241 4863
L 5241 4128
L 4622 4128
Q 4388 4128 4297 4044
Q 4206 3956 4206 3744
L 4206 3500
L 6600 3500
L 6600 0
L 5472 0
L 5472 2700
L 4206 2700
L 4206 0
L 4197 0
L 3078 0
L 3078 2700
L 1797 2700
L 1797 0
L 678 0
L 678 2700
L 122 2700
L 122 3500
L 678 3500
L 678 3744
Q 678 4316 997 4588
Q 1316 4863 1984 4863
L 2841 4863
z
M 5472 4863
L 6600 4863
L 6600 3950
L 5472 3950
L 5472 4863
z
" transform="scale(0.015625)"/>
      <path id="DejaVuSans-Bold-46" d="M 3366 3391
L 3366 2478
Q 3138 2634 2908 2709
Q 2678 2784 2431 2784
Q 1963 2784 1702 2511
Q 1441 2238 1441 1747
Q 1441 1256 1702 982
Q 1963 709 2431 709
Q 2694 709 2930 787
Q 3166 866 3366 1019
L 3366 103
Q 3103 6 2833 -42
Q 2563 -91 2291 -91
Q 1344 -91 809 395
Q 275 881 275 1747
Q 275 2613 809 3098
Q 1344 3584 2291 3584
Q 2566 3584 2833 3536
Q 3100 3488 3366 3391
z
" transform="scale(0.015625)"/>
      <path id="DejaVuSans-Bold-48" d="M 4031 1759
L 4031 1441
L 1416 1441
Q 1456 1047 1700 850
Q 1944 653 2381 653
Q 2734 653 3104 758
Q 3475 863 3866 1075
L 3866 213
Q 3469 63 3072 -14
Q 2675 -91 2278 -91
Q 1328 -91 801 392
Q 275 875 275 1747
Q 275 2603 792 3093
Q 1309 3584 2216 3584
Q 3041 3584 3536 3087
Q 4031 2591 4031 1759
z
M 2881 2131
Q 2881 2450 2695 2645
Q 2509 2841 2209 2841
Q 1884 2841 1681 2658
Q 1478 2475 1428 2131
L 2881 2131
z
" transform="scale(0.015625)"/>
      <path id="DejaVuSans-Bold-34" d="M 2847 -84
L 2753 -84
Q 1600 -84 959 553
Q 319 1191 319 2328
Q 319 3463 958 4106
Q 1597 4750 2719 4750
Q 3853 4750 4486 4112
Q 5119 3475 5119 2328
Q 5119 1541 4783 972
Q 4447 403 3816 116
L 4756 -934
L 3609 -934
L 2847 -84
z
M 2719 3878
Q 2169 3878 1866 3472
Q 1563 3066 1563 2328
Q 1563 1578 1859 1179
Q 2156 781 2719 781
Q 3272 781 3575 1187
Q 3878 1594 3878 2328
Q 3878 3066 3575 3472
Q 3272 3878 2719 3878
z
" transform="scale(0.015625)"/>
      <path id="DejaVuSans-Bold-24" d="M 3419 850
L 1538 850
L 1241 0
L 31 0
L 1759 4666
L 3194 4666
L 4922 0
L 3713 0
L 3419 850
z
M 1838 1716
L 3116 1716
L 2478 3572
L 1838 1716
z
" transform="scale(0.015625)"/>
      <path id="DejaVuSans-Bold-1d" d="M 716 3500
L 1844 3500
L 1844 2291
L 716 2291
L 716 3500
z
M 716 1209
L 1844 1209
L 1844 0
L 716 0
L 716 1209
z
" transform="scale(0.015625)"/>
      <path id="DejaVuSans-Bold-3" transform="scale(0.015625)"/>
      <path id="DejaVuSans-Bold-4b" d="M 4056 2131
L 4056 0
L 2931 0
L 2931 347
L 2931 1625
Q 2931 2084 2911 2256
Q 2891 2428 2841 2509
Q 2775 2619 2662 2680
Q 2550 2741 2406 2741
Q 2056 2741 1856 2470
Q 1656 2200 1656 1722
L 1656 0
L 538 0
L 538 4863
L 1656 4863
L 1656 2988
Q 1909 3294 2193 3439
Q 2478 3584 2822 3584
Q 3428 3584 3742 3212
Q 4056 2841 4056 2131
z
" transform="scale(0.015625)"/>
      <path id="DejaVuSans-Bold-4f" d="M 538 4863
L 1656 4863
L 1656 0
L 538 0
L 538 4863
z
" transform="scale(0.015625)"/>
      <path id="DejaVuSans-Bold-47" d="M 2919 2988
L 2919 4863
L 4044 4863
L 4044 0
L 2919 0
L 2919 506
Q 2688 197 2409 53
Q 2131 -91 1766 -91
Q 1119 -91 703 423
Q 288 938 288 1747
Q 288 2556 703 3070
Q 1119 3584 1766 3584
Q 2128 3584 2408 3439
Q 2688 3294 2919 2988
z
M 2181 722
Q 2541 722 2730 984
Q 2919 1247 2919 1747
Q 2919 2247 2730 2509
Q 2541 2772 2181 2772
Q 1825 2772 1636 2509
Q 1447 2247 1447 1747
Q 1447 1247 1636 984
Q 1825 722 2181 722
z
" transform="scale(0.015625)"/>
      <path id="DejaVuSans-Bold-10" d="M 347 2297
L 2309 2297
L 2309 1388
L 347 1388
L 347 2297
z
" transform="scale(0.015625)"/>
      <path id="DejaVuSans-Bold-52" d="M 2203 2784
Q 1831 2784 1636 2517
Q 1441 2250 1441 1747
Q 1441 1244 1636 976
Q 1831 709 2203 709
Q 2569 709 2762 976
Q 2956 1244 2956 1747
Q 2956 2250 2762 2517
Q 2569 2784 2203 2784
z
M 2203 3584
Q 3106 3584 3614 3096
Q 4122 2609 4122 1747
Q 4122 884 3614 396
Q 3106 -91 2203 -91
Q 1297 -91 786 396
Q 275 884 275 1747
Q 275 2609 786 3096
Q 1297 3584 2203 3584
z
" transform="scale(0.015625)"/>
      <path id="DejaVuSans-Bold-58" d="M 500 1363
L 500 3500
L 1625 3500
L 1625 3150
Q 1625 2866 1622 2436
Q 1619 2006 1619 1863
Q 1619 1441 1641 1255
Q 1663 1069 1716 984
Q 1784 875 1895 815
Q 2006 756 2150 756
Q 2500 756 2700 1025
Q 2900 1294 2900 1772
L 2900 3500
L 4019 3500
L 4019 0
L 2900 0
L 2900 506
Q 2647 200 2364 54
Q 2081 -91 1741 -91
Q 1134 -91 817 281
Q 500 653 500 1363
z
" transform="scale(0.015625)"/>
      <path id="DejaVuSans-Bold-57" d="M 1759 4494
L 1759 3500
L 2913 3500
L 2913 2700
L 1759 2700
L 1759 1216
Q 1759 972 1856 886
Q 1953 800 2241 800
L 2816 800
L 2816 0
L 1856 0
Q 1194 0 917 276
Q 641 553 641 1216
L 641 2700
L 84 2700
L 84 3500
L 641 3500
L 641 4494
L 1759 4494
z
" transform="scale(0.015625)"/>
      <path id="DejaVuSans-Bold-13ab" d="M 3078 4863
L 4206 4863
L 4206 3950
L 3078 3950
L 3078 4863
z
M 2847 4863
L 2847 4128
L 2228 4128
Q 1994 4128 1903 4042
Q 1813 3956 1813 3744
L 1813 3500
L 4206 3500
L 4206 0
L 3078 0
L 3078 2700
L 1813 2700
L 1813 0
L 684 0
L 684 2700
L 134 2700
L 134 3500
L 684 3500
L 684 3744
Q 684 4316 1003 4589
Q 1322 4863 1991 4863
L 2847 4863
z
" transform="scale(0.015625)"/>
      <path id="DejaVuSans-Bold-51" d="M 4056 2131
L 4056 0
L 2931 0
L 2931 347
L 2931 1631
Q 2931 2084 2911 2256
Q 2891 2428 2841 2509
Q 2775 2619 2662 2680
Q 2550 2741 2406 2741
Q 2056 2741 1856 2470
Q 1656 2200 1656 1722
L 1656 0
L 538 0
L 538 3500
L 1656 3500
L 1656 2988
Q 1909 3294 2193 3439
Q 2478 3584 2822 3584
Q 3428 3584 3742 3212
Q 4056 2841 4056 2131
z
" transform="scale(0.015625)"/>
      <path id="DejaVuSans-Bold-44" d="M 2106 1575
Q 1756 1575 1579 1456
Q 1403 1338 1403 1106
Q 1403 894 1545 773
Q 1688 653 1941 653
Q 2256 653 2472 879
Q 2688 1106 2688 1447
L 2688 1575
L 2106 1575
z
M 3816 1997
L 3816 0
L 2688 0
L 2688 519
Q 2463 200 2181 54
Q 1900 -91 1497 -91
Q 953 -91 614 226
Q 275 544 275 1050
Q 275 1666 698 1953
Q 1122 2241 2028 2241
L 2688 2241
L 2688 2328
Q 2688 2594 2478 2717
Q 2269 2841 1825 2841
Q 1466 2841 1156 2769
Q 847 2697 581 2553
L 581 3406
Q 941 3494 1303 3539
Q 1666 3584 2028 3584
Q 2975 3584 3395 3211
Q 3816 2838 3816 1997
z
" transform="scale(0.015625)"/>
      <path id="DejaVuSans-Bold-55" d="M 3138 2547
Q 2991 2616 2845 2648
Q 2700 2681 2553 2681
Q 2122 2681 1889 2404
Q 1656 2128 1656 1613
L 1656 0
L 538 0
L 538 3500
L 1656 3500
L 1656 2925
Q 1872 3269 2151 3426
Q 2431 3584 2822 3584
Q 2878 3584 2943 3579
Q 3009 3575 3134 3559
L 3138 2547
z
" transform="scale(0.015625)"/>
      <path id="DejaVuSans-Bold-5c" d="M 78 3500
L 1197 3500
L 2138 1125
L 2938 3500
L 4056 3500
L 2584 -331
Q 2363 -916 2067 -1148
Q 1772 -1381 1288 -1381
L 641 -1381
L 641 -647
L 991 -647
Q 1275 -647 1404 -556
Q 1534 -466 1606 -231
L 1638 -134
L 78 3500
z
" transform="scale(0.015625)"/>
      <path id="DejaVuSans-Bold-59" d="M 97 3500
L 1216 3500
L 2088 1081
L 2956 3500
L 4078 3500
L 2700 0
L 1472 0
L 97 3500
z
" transform="scale(0.015625)"/>
      <path id="DejaVuSans-Bold-56" d="M 3272 3391
L 3272 2541
Q 2913 2691 2578 2766
Q 2244 2841 1947 2841
Q 1628 2841 1473 2761
Q 1319 2681 1319 2516
Q 1319 2381 1436 2309
Q 1553 2238 1856 2203
L 2053 2175
Q 2913 2066 3209 1816
Q 3506 1566 3506 1031
Q 3506 472 3093 190
Q 2681 -91 1863 -91
Q 1516 -91 1145 -36
Q 775 19 384 128
L 384 978
Q 719 816 1070 734
Q 1422 653 1784 653
Q 2113 653 2278 743
Q 2444 834 2444 1013
Q 2444 1163 2330 1236
Q 2216 1309 1875 1350
L 1678 1375
Q 931 1469 631 1722
Q 331 1975 331 2491
Q 331 3047 712 3315
Q 1094 3584 1881 3584
Q 2191 3584 2531 3537
Q 2872 3491 3272 3391
z
" transform="scale(0.015625)"/>
      <path id="DejaVuSans-Bold-53" d="M 1656 506
L 1656 -1331
L 538 -1331
L 538 3500
L 1656 3500
L 1656 2988
Q 1888 3294 2169 3439
Q 2450 3584 2816 3584
Q 3463 3584 3878 3070
Q 4294 2556 4294 1747
Q 4294 938 3878 423
Q 3463 -91 2816 -91
Q 2450 -91 2169 54
Q 1888 200 1656 506
z
M 2400 2772
Q 2041 2772 1848 2508
Q 1656 2244 1656 1747
Q 1656 1250 1848 986
Q 2041 722 2400 722
Q 2759 722 2948 984
Q 3138 1247 3138 1747
Q 3138 2247 2948 2509
Q 2759 2772 2400 2772
z
" transform="scale(0.015625)"/>
      <path id="DejaVuSans-Bold-4c" d="M 538 3500
L 1656 3500
L 1656 0
L 538 0
L 538 3500
z
M 538 4863
L 1656 4863
L 1656 3950
L 538 3950
L 538 4863
z
" transform="scale(0.015625)"/>
      <path id="DejaVuSans-Bold-50" d="M 3781 2919
Q 3994 3244 4286 3414
Q 4578 3584 4928 3584
Q 5531 3584 5847 3212
Q 6163 2841 6163 2131
L 6163 0
L 5038 0
L 5038 1825
Q 5041 1866 5042 1909
Q 5044 1953 5044 2034
Q 5044 2406 4934 2573
Q 4825 2741 4581 2741
Q 4263 2741 4089 2478
Q 3916 2216 3909 1719
L 3909 0
L 2784 0
L 2784 1825
Q 2784 2406 2684 2573
Q 2584 2741 2328 2741
Q 2006 2741 1831 2477
Q 1656 2213 1656 1722
L 1656 0
L 531 0
L 531 3500
L 1656 3500
L 1656 2988
Q 1863 3284 2130 3434
Q 2397 3584 2719 3584
Q 3081 3584 3359 3409
Q 3638 3234 3781 2919
z
" transform="scale(0.015625)"/>
      <path id="DejaVuSans-Bold-5d" d="M 366 3500
L 3419 3500
L 3419 2719
L 1575 800
L 3419 800
L 3419 0
L 288 0
L 288 781
L 2131 2700
L 366 2700
L 366 3500
z
" transform="scale(0.015625)"/>
      <path id="DejaVuSans-Bold-4a" d="M 2919 594
Q 2688 288 2409 144
Q 2131 0 1766 0
Q 1125 0 706 504
Q 288 1009 288 1791
Q 288 2575 706 3076
Q 1125 3578 1766 3578
Q 2131 3578 2409 3434
Q 2688 3291 2919 2981
L 2919 3500
L 4044 3500
L 4044 353
Q 4044 -491 3511 -936
Q 2978 -1381 1966 -1381
Q 1638 -1381 1331 -1331
Q 1025 -1281 716 -1178
L 716 -306
Q 1009 -475 1290 -558
Q 1572 -641 1856 -641
Q 2406 -641 2662 -400
Q 2919 -159 2919 353
L 2919 594
z
M 2181 2772
Q 1834 2772 1640 2515
Q 1447 2259 1447 1791
Q 1447 1309 1634 1061
Q 1822 813 2181 813
Q 2531 813 2725 1069
Q 2919 1325 2919 1791
Q 2919 2259 2725 2515
Q 2531 2772 2181 2772
z
" transform="scale(0.015625)"/>
     </defs>
     <use xlink:href="#DejaVuSans-Bold-32"/>
     <use xlink:href="#DejaVuSans-Bold-13ad" transform="translate(85.015625 0)"/>
     <use xlink:href="#DejaVuSans-Bold-46" transform="translate(196.546875 0)"/>
     <use xlink:href="#DejaVuSans-Bold-48" transform="translate(255.828125 0)"/>
     <use xlink:href="#DejaVuSans-Bold-34" transform="translate(323.65625 0)"/>
     <use xlink:href="#DejaVuSans-Bold-24" transform="translate(408.671875 0)"/>
     <use xlink:href="#DejaVuSans-Bold-1d" transform="translate(487.921875 0)"/>
     <use xlink:href="#DejaVuSans-Bold-3" transform="translate(527.90625 0)"/>
     <use xlink:href="#DejaVuSans-Bold-4b" transform="translate(562.71875 0)"/>
     <use xlink:href="#DejaVuSans-Bold-48" transform="translate(633.90625 0)"/>
     <use xlink:href="#DejaVuSans-Bold-4f" transform="translate(701.734375 0)"/>
     <use xlink:href="#DejaVuSans-Bold-47" transform="translate(736.015625 0)"/>
     <use xlink:href="#DejaVuSans-Bold-10" transform="translate(807.59375 0)"/>
     <use xlink:href="#DejaVuSans-Bold-52" transform="translate(849.09375 0)"/>
     <use xlink:href="#DejaVuSans-Bold-58" transform="translate(917.796875 0)"/>
     <use xlink:href="#DejaVuSans-Bold-57" transform="translate(988.984375 0)"/>
     <use xlink:href="#DejaVuSans-Bold-3" transform="translate(1036.78125 0)"/>
     <use xlink:href="#DejaVuSans-Bold-13ab" transform="translate(1071.59375 0)"/>
     <use xlink:href="#DejaVuSans-Bold-51" transform="translate(1145.71875 0)"/>
     <use xlink:href="#DejaVuSans-Bold-44" transform="translate(1216.90625 0)"/>
     <use xlink:href="#DejaVuSans-Bold-4f" transform="translate(1284.390625 0)"/>
     <use xlink:href="#DejaVuSans-Bold-48" transform="translate(1318.671875 0)"/>
     <use xlink:href="#DejaVuSans-Bold-3" transform="translate(1386.5 0)"/>
     <use xlink:href="#DejaVuSans-Bold-44" transform="translate(1421.3125 0)"/>
     <use xlink:href="#DejaVuSans-Bold-46" transform="translate(1488.796875 0)"/>
     <use xlink:href="#DejaVuSans-Bold-46" transform="translate(1548.078125 0)"/>
     <use xlink:href="#DejaVuSans-Bold-58" transform="translate(1607.359375 0)"/>
     <use xlink:href="#DejaVuSans-Bold-55" transform="translate(1678.546875 0)"/>
     <use xlink:href="#DejaVuSans-Bold-44" transform="translate(1727.859375 0)"/>
     <use xlink:href="#DejaVuSans-Bold-46" transform="translate(1795.34375 0)"/>
     <use xlink:href="#DejaVuSans-Bold-5c" transform="translate(1854.625 0)"/>
     <use xlink:href="#DejaVuSans-Bold-3" transform="translate(1919.8125 0)"/>
     <use xlink:href="#DejaVuSans-Bold-59" transform="translate(1954.625 0)"/>
     <use xlink:href="#DejaVuSans-Bold-48" transform="translate(2019.8125 0)"/>
     <use xlink:href="#DejaVuSans-Bold-55" transform="translate(2087.640625 0)"/>
     <use xlink:href="#DejaVuSans-Bold-56" transform="translate(2136.953125 0)"/>
     <use xlink:href="#DejaVuSans-Bold-58" transform="translate(2196.46875 0)"/>
     <use xlink:href="#DejaVuSans-Bold-56" transform="translate(2267.65625 0)"/>
     <use xlink:href="#DejaVuSans-Bold-3" transform="translate(2327.171875 0)"/>
     <use xlink:href="#DejaVuSans-Bold-52" transform="translate(2361.984375 0)"/>
     <use xlink:href="#DejaVuSans-Bold-53" transform="translate(2430.6875 0)"/>
     <use xlink:href="#DejaVuSans-Bold-57" transform="translate(2502.265625 0)"/>
     <use xlink:href="#DejaVuSans-Bold-4c" transform="translate(2550.0625 0)"/>
     <use xlink:href="#DejaVuSans-Bold-50" transform="translate(2584.34375 0)"/>
     <use xlink:href="#DejaVuSans-Bold-4c" transform="translate(2688.546875 0)"/>
     <use xlink:href="#DejaVuSans-Bold-5d" transform="translate(2722.828125 0)"/>
     <use xlink:href="#DejaVuSans-Bold-48" transform="translate(2781.03125 0)"/>
     <use xlink:href="#DejaVuSans-Bold-10" transform="translate(2848.859375 0)"/>
     <use xlink:href="#DejaVuSans-Bold-56" transform="translate(2890.359375 0)"/>
     <use xlink:href="#DejaVuSans-Bold-57" transform="translate(2949.875 0)"/>
     <use xlink:href="#DejaVuSans-Bold-44" transform="translate(2997.671875 0)"/>
     <use xlink:href="#DejaVuSans-Bold-4a" transform="translate(3065.15625 0)"/>
     <use xlink:href="#DejaVuSans-Bold-48" transform="translate(3136.734375 0)"/>
     <use xlink:href="#DejaVuSans-Bold-3" transform="translate(3204.5625 0)"/>
     <use xlink:href="#DejaVuSans-Bold-46" transform="translate(3239.375 0)"/>
     <use xlink:href="#DejaVuSans-Bold-52" transform="translate(3298.65625 0)"/>
     <use xlink:href="#DejaVuSans-Bold-56" transform="translate(3367.359375 0)"/>
     <use xlink:href="#DejaVuSans-Bold-57" transform="translate(3426.875 0)"/>
    </g>
   </g>
   <g id="legend_1">
    <g id="line2d_25">
     <path d="M 108.352422 408.93865
L 122.352422 408.93865
L 136.352422 408.93865
" style="fill: none; stroke: #e76f00; stroke-width: 2.1; stroke-linecap: square"/>
     <g>
      <use xlink:href="#mf1166933a8" x="122.352422" y="408.93865" style="fill: #e76f00; stroke: #e76f00; stroke-width: 1.6"/>
     </g>
    </g>
    <g id="text_13">
     <!-- Claude Code — with skill -->
     <g transform="translate(144.352422 412.43865) scale(0.1 -0.1)">
      <defs>
       <path id="DejaVuSans-26" d="M 4122 4306
L 4122 3641
Q 3803 3938 3442 4084
Q 3081 4231 2675 4231
Q 1875 4231 1450 3742
Q 1025 3253 1025 2328
Q 1025 1406 1450 917
Q 1875 428 2675 428
Q 3081 428 3442 575
Q 3803 722 4122 1019
L 4122 359
Q 3791 134 3420 21
Q 3050 -91 2638 -91
Q 1578 -91 968 557
Q 359 1206 359 2328
Q 359 3453 968 4101
Q 1578 4750 2638 4750
Q 3056 4750 3426 4639
Q 3797 4528 4122 4306
z
" transform="scale(0.015625)"/>
       <path id="DejaVuSans-af6" d="M 313 1978
L 6088 1978
L 6088 1528
L 313 1528
L 313 1978
z
" transform="scale(0.015625)"/>
       <path id="DejaVuSans-5a" d="M 269 3500
L 844 3500
L 1563 769
L 2278 3500
L 2956 3500
L 3675 769
L 4391 3500
L 4966 3500
L 4050 0
L 3372 0
L 2619 2869
L 1863 0
L 1184 0
L 269 3500
z
" transform="scale(0.015625)"/>
       <path id="DejaVuSans-4b" d="M 3513 2113
L 3513 0
L 2938 0
L 2938 2094
Q 2938 2591 2744 2837
Q 2550 3084 2163 3084
Q 1697 3084 1428 2787
Q 1159 2491 1159 1978
L 1159 0
L 581 0
L 581 4863
L 1159 4863
L 1159 2956
Q 1366 3272 1645 3428
Q 1925 3584 2291 3584
Q 2894 3584 3203 3211
Q 3513 2838 3513 2113
z
" transform="scale(0.015625)"/>
       <path id="DejaVuSans-4e" d="M 581 4863
L 1159 4863
L 1159 1991
L 2875 3500
L 3609 3500
L 1753 1863
L 3688 0
L 2938 0
L 1159 1709
L 1159 0
L 581 0
L 581 4863
z
" transform="scale(0.015625)"/>
      </defs>
      <use xlink:href="#DejaVuSans-26"/>
      <use xlink:href="#DejaVuSans-4f" transform="translate(69.828125 0)"/>
      <use xlink:href="#DejaVuSans-44" transform="translate(97.609375 0)"/>
      <use xlink:href="#DejaVuSans-58" transform="translate(158.890625 0)"/>
      <use xlink:href="#DejaVuSans-47" transform="translate(222.265625 0)"/>
      <use xlink:href="#DejaVuSans-48" transform="translate(285.75 0)"/>
      <use xlink:href="#DejaVuSans-3" transform="translate(347.28125 0)"/>
      <use xlink:href="#DejaVuSans-26" transform="translate(379.0625 0)"/>
      <use xlink:href="#DejaVuSans-52" transform="translate(448.890625 0)"/>
      <use xlink:href="#DejaVuSans-47" transform="translate(510.078125 0)"/>
      <use xlink:href="#DejaVuSans-48" transform="translate(573.5625 0)"/>
      <use xlink:href="#DejaVuSans-3" transform="translate(635.09375 0)"/>
      <use xlink:href="#DejaVuSans-af6" transform="translate(666.875 0)"/>
      <use xlink:href="#DejaVuSans-3" transform="translate(766.875 0)"/>
      <use xlink:href="#DejaVuSans-5a" transform="translate(798.65625 0)"/>
      <use xlink:href="#DejaVuSans-4c" transform="translate(880.4375 0)"/>
      <use xlink:href="#DejaVuSans-57" transform="translate(908.21875 0)"/>
      <use xlink:href="#DejaVuSans-4b" transform="translate(947.421875 0)"/>
      <use xlink:href="#DejaVuSans-3" transform="translate(1010.796875 0)"/>
      <use xlink:href="#DejaVuSans-56" transform="translate(1042.578125 0)"/>
      <use xlink:href="#DejaVuSans-4e" transform="translate(1094.671875 0)"/>
      <use xlink:href="#DejaVuSans-4c" transform="translate(1152.578125 0)"/>
      <use xlink:href="#DejaVuSans-4f" transform="translate(1180.359375 0)"/>
      <use xlink:href="#DejaVuSans-4f" transform="translate(1208.140625 0)"/>
     </g>
    </g>
    <g id="line2d_26">
     <path d="M 108.352422 423.939431
L 122.352422 423.939431
L 136.352422 423.939431
" style="fill: none; stroke-dasharray: 7.77,3.36; stroke-dashoffset: 0; stroke: #e76f00; stroke-width: 2.1"/>
     <g>
      <use xlink:href="#m5cf7f65588" x="122.352422" y="423.939431" style="fill: #ffffff; stroke: #e76f00; stroke-width: 1.6"/>
     </g>
    </g>
    <g id="text_14">
     <!-- Claude Code — no skill -->
     <g transform="translate(144.352422 427.439431) scale(0.1 -0.1)">
      <use xlink:href="#DejaVuSans-26"/>
      <use xlink:href="#DejaVuSans-4f" transform="translate(69.828125 0)"/>
      <use xlink:href="#DejaVuSans-44" transform="translate(97.609375 0)"/>
      <use xlink:href="#DejaVuSans-58" transform="translate(158.890625 0)"/>
      <use xlink:href="#DejaVuSans-47" transform="translate(222.265625 0)"/>
      <use xlink:href="#DejaVuSans-48" transform="translate(285.75 0)"/>
      <use xlink:href="#DejaVuSans-3" transform="translate(347.28125 0)"/>
      <use xlink:href="#DejaVuSans-26" transform="translate(379.0625 0)"/>
      <use xlink:href="#DejaVuSans-52" transform="translate(448.890625 0)"/>
      <use xlink:href="#DejaVuSans-47" transform="translate(510.078125 0)"/>
      <use xlink:href="#DejaVuSans-48" transform="translate(573.5625 0)"/>
      <use xlink:href="#DejaVuSans-3" transform="translate(635.09375 0)"/>
      <use xlink:href="#DejaVuSans-af6" transform="translate(666.875 0)"/>
      <use xlink:href="#DejaVuSans-3" transform="translate(766.875 0)"/>
      <use xlink:href="#DejaVuSans-51" transform="translate(798.65625 0)"/>
      <use xlink:href="#DejaVuSans-52" transform="translate(862.03125 0)"/>
      <use xlink:href="#DejaVuSans-3" transform="translate(923.21875 0)"/>
      <use xlink:href="#DejaVuSans-56" transform="translate(955 0)"/>
      <use xlink:href="#DejaVuSans-4e" transform="translate(1007.09375 0)"/>
      <use xlink:href="#DejaVuSans-4c" transform="translate(1065 0)"/>
      <use xlink:href="#DejaVuSans-4f" transform="translate(1092.78125 0)"/>
      <use xlink:href="#DejaVuSans-4f" transform="translate(1120.5625 0)"/>
     </g>
    </g>
    <g id="line2d_27">
     <path d="M 285.944609 408.93865
L 299.944609 408.93865
L 313.944609 408.93865
" style="fill: none; stroke: #059669; stroke-width: 2.1; stroke-linecap: square"/>
     <g>
      <use xlink:href="#mbead683cdf" x="299.944609" y="408.93865" style="fill: #059669; stroke: #059669; stroke-width: 1.6"/>
     </g>
    </g>
    <g id="text_15">
     <!-- Codex — with skill -->
     <g transform="translate(321.944609 412.43865) scale(0.1 -0.1)">
      <defs>
       <path id="DejaVuSans-5b" d="M 3513 3500
L 2247 1797
L 3578 0
L 2900 0
L 1881 1375
L 863 0
L 184 0
L 1544 1831
L 300 3500
L 978 3500
L 1906 2253
L 2834 3500
L 3513 3500
z
" transform="scale(0.015625)"/>
      </defs>
      <use xlink:href="#DejaVuSans-26"/>
      <use xlink:href="#DejaVuSans-52" transform="translate(69.828125 0)"/>
      <use xlink:href="#DejaVuSans-47" transform="translate(131.015625 0)"/>
      <use xlink:href="#DejaVuSans-48" transform="translate(194.5 0)"/>
      <use xlink:href="#DejaVuSans-5b" transform="translate(254.28125 0)"/>
      <use xlink:href="#DejaVuSans-3" transform="translate(313.46875 0)"/>
      <use xlink:href="#DejaVuSans-af6" transform="translate(345.25 0)"/>
      <use xlink:href="#DejaVuSans-3" transform="translate(445.25 0)"/>
      <use xlink:href="#DejaVuSans-5a" transform="translate(477.03125 0)"/>
      <use xlink:href="#DejaVuSans-4c" transform="translate(558.8125 0)"/>
      <use xlink:href="#DejaVuSans-57" transform="translate(586.59375 0)"/>
      <use xlink:href="#DejaVuSans-4b" transform="translate(625.796875 0)"/>
      <use xlink:href="#DejaVuSans-3" transform="translate(689.171875 0)"/>
      <use xlink:href="#DejaVuSans-56" transform="translate(720.953125 0)"/>
      <use xlink:href="#DejaVuSans-4e" transform="translate(773.046875 0)"/>
      <use xlink:href="#DejaVuSans-4c" transform="translate(830.953125 0)"/>
      <use xlink:href="#DejaVuSans-4f" transform="translate(858.734375 0)"/>
      <use xlink:href="#DejaVuSans-4f" transform="translate(886.515625 0)"/>
     </g>
    </g>
    <g id="line2d_28">
     <path d="M 285.944609 423.939431
L 299.944609 423.939431
L 313.944609 423.939431
" style="fill: none; stroke-dasharray: 7.77,3.36; stroke-dashoffset: 0; stroke: #059669; stroke-width: 2.1"/>
     <g>
      <use xlink:href="#mc6af1fe56c" x="299.944609" y="423.939431" style="fill: #ffffff; stroke: #059669; stroke-width: 1.6"/>
     </g>
    </g>
    <g id="text_16">
     <!-- Codex — no skill -->
     <g transform="translate(321.944609 427.439431) scale(0.1 -0.1)">
      <use xlink:href="#DejaVuSans-26"/>
      <use xlink:href="#DejaVuSans-52" transform="translate(69.828125 0)"/>
      <use xlink:href="#DejaVuSans-47" transform="translate(131.015625 0)"/>
      <use xlink:href="#DejaVuSans-48" transform="translate(194.5 0)"/>
      <use xlink:href="#DejaVuSans-5b" transform="translate(254.28125 0)"/>
      <use xlink:href="#DejaVuSans-3" transform="translate(313.46875 0)"/>
      <use xlink:href="#DejaVuSans-af6" transform="translate(345.25 0)"/>
      <use xlink:href="#DejaVuSans-3" transform="translate(445.25 0)"/>
      <use xlink:href="#DejaVuSans-51" transform="translate(477.03125 0)"/>
      <use xlink:href="#DejaVuSans-52" transform="translate(540.40625 0)"/>
      <use xlink:href="#DejaVuSans-3" transform="translate(601.59375 0)"/>
      <use xlink:href="#DejaVuSans-56" transform="translate(633.375 0)"/>
      <use xlink:href="#DejaVuSans-4e" transform="translate(685.46875 0)"/>
      <use xlink:href="#DejaVuSans-4c" transform="translate(743.375 0)"/>
      <use xlink:href="#DejaVuSans-4f" transform="translate(771.15625 0)"/>
      <use xlink:href="#DejaVuSans-4f" transform="translate(798.9375 0)"/>
     </g>
    </g>
    <g id="line2d_29">
     <path d="M 431.374297 408.93865
L 445.374297 408.93865
L 459.374297 408.93865
" style="fill: none; stroke: #2563eb; stroke-width: 2.1; stroke-linecap: square"/>
     <g>
      <use xlink:href="#md5c0569993" x="445.374297" y="408.93865" style="fill: #2563eb; stroke: #2563eb; stroke-width: 1.6"/>
     </g>
    </g>
    <g id="text_17">
     <!-- Copilot — with skill -->
     <g transform="translate(467.374297 412.43865) scale(0.1 -0.1)">
      <use xlink:href="#DejaVuSans-26"/>
      <use xlink:href="#DejaVuSans-52" transform="translate(69.828125 0)"/>
      <use xlink:href="#DejaVuSans-53" transform="translate(131.015625 0)"/>
      <use xlink:href="#DejaVuSans-4c" transform="translate(194.5 0)"/>
      <use xlink:href="#DejaVuSans-4f" transform="translate(222.28125 0)"/>
      <use xlink:href="#DejaVuSans-52" transform="translate(250.0625 0)"/>
      <use xlink:href="#DejaVuSans-57" transform="translate(311.25 0)"/>
      <use xlink:href="#DejaVuSans-3" transform="translate(350.453125 0)"/>
      <use xlink:href="#DejaVuSans-af6" transform="translate(382.234375 0)"/>
      <use xlink:href="#DejaVuSans-3" transform="translate(482.234375 0)"/>
      <use xlink:href="#DejaVuSans-5a" transform="translate(514.015625 0)"/>
      <use xlink:href="#DejaVuSans-4c" transform="translate(595.796875 0)"/>
      <use xlink:href="#DejaVuSans-57" transform="translate(623.578125 0)"/>
      <use xlink:href="#DejaVuSans-4b" transform="translate(662.78125 0)"/>
      <use xlink:href="#DejaVuSans-3" transform="translate(726.15625 0)"/>
      <use xlink:href="#DejaVuSans-56" transform="translate(757.9375 0)"/>
      <use xlink:href="#DejaVuSans-4e" transform="translate(810.03125 0)"/>
      <use xlink:href="#DejaVuSans-4c" transform="translate(867.9375 0)"/>
      <use xlink:href="#DejaVuSans-4f" transform="translate(895.71875 0)"/>
      <use xlink:href="#DejaVuSans-4f" transform="translate(923.5 0)"/>
     </g>
    </g>
    <g id="line2d_30">
     <path d="M 431.374297 423.939431
L 445.374297 423.939431
L 459.374297 423.939431
" style="fill: none; stroke-dasharray: 7.77,3.36; stroke-dashoffset: 0; stroke: #2563eb; stroke-width: 2.1"/>
     <g>
      <use xlink:href="#m011878ea87" x="445.374297" y="423.939431" style="fill: #ffffff; stroke: #2563eb; stroke-width: 1.6"/>
     </g>
    </g>
    <g id="text_18">
     <!-- Copilot — no skill -->
     <g transform="translate(467.374297 427.439431) scale(0.1 -0.1)">
      <use xlink:href="#DejaVuSans-26"/>
      <use xlink:href="#DejaVuSans-52" transform="translate(69.828125 0)"/>
      <use xlink:href="#DejaVuSans-53" transform="translate(131.015625 0)"/>
      <use xlink:href="#DejaVuSans-4c" transform="translate(194.5 0)"/>
      <use xlink:href="#DejaVuSans-4f" transform="translate(222.28125 0)"/>
      <use xlink:href="#DejaVuSans-52" transform="translate(250.0625 0)"/>
      <use xlink:href="#DejaVuSans-57" transform="translate(311.25 0)"/>
      <use xlink:href="#DejaVuSans-3" transform="translate(350.453125 0)"/>
      <use xlink:href="#DejaVuSans-af6" transform="translate(382.234375 0)"/>
      <use xlink:href="#DejaVuSans-3" transform="translate(482.234375 0)"/>
      <use xlink:href="#DejaVuSans-51" transform="translate(514.015625 0)"/>
      <use xlink:href="#DejaVuSans-52" transform="translate(577.390625 0)"/>
      <use xlink:href="#DejaVuSans-3" transform="translate(638.578125 0)"/>
      <use xlink:href="#DejaVuSans-56" transform="translate(670.359375 0)"/>
      <use xlink:href="#DejaVuSans-4e" transform="translate(722.453125 0)"/>
      <use xlink:href="#DejaVuSans-4c" transform="translate(780.359375 0)"/>
      <use xlink:href="#DejaVuSans-4f" transform="translate(808.140625 0)"/>
      <use xlink:href="#DejaVuSans-4f" transform="translate(835.921875 0)"/>
     </g>
    </g>
   </g>
  </g>
 </g>
 <defs>
  <clipPath id="p02186730e9">
   <rect x="56.427422" y="23.837812" width="558" height="304.92"/>
  </clipPath>
 </defs>
</svg>
